<svg xmlns="http://www.w3.org/2000/svg" viewBox="0 0 64 64" width="64" height="64">
  <!-- Árbol más grande detrás de la casa -->
  <g>
    <!-- Tronco más ancho y más alto -->
    <rect x="8" y="28" width="4" height="14" fill="#5D4037"/>
    <!-- Copa más grande -->
    <circle cx="10" cy="24" r="8" fill="#4CAF50" stroke="#388E3C" stroke-width="1"/>
  </g>

  <!-- Casa grande centrada -->
  <g stroke="#000" stroke-width="1.5" fill="white">
    <!-- Chimenea -->
    <rect x="42" y="14" width="3" height="8" fill="#B71C1C"/>
    <!-- Techo terracota -->
    <path d="M12 28 L32 10 L52 28 Z" fill="#D84315"/>
    <!-- Cuerpo -->
    <rect x="20" y="28" width="24" height="24" rx="2" fill="#FFF8E1"/>
    <!-- Puerta izquierda junto al escudo, movida a la derecha -->
    <rect x="25" y="42" width="6" height="10" fill="#ff5143" stroke="#000" stroke-width="1"/>
    <!-- Ventana grande junto a la puerta, más corta y movida a la derecha -->
    <rect x="34" y="38" width="8" height="8" fill="#81D4FA" stroke="#000" stroke-width="1" rx="1"/>
  </g>

  <!-- Arbusto en la esquina derecha de la casa -->
  <g>
    <circle cx="44" cy="52" r="4" fill="#66BB6A" stroke="#2E7D32" stroke-width="0.8"/>
    <circle cx="48" cy="50" r="3.2" fill="#66BB6A" stroke="#2E7D32" stroke-width="0.8"/>
  </g>

  <!-- Escudo estilo clásico -->
  <path d="M6 32 
           H22 
           Q24 32, 24 34 
           V46 
           Q24 52, 15 58 
           Q6 52, 6 46 
           V34 
           Q6 32, 8 32 
           Z"
        fill="#2196F3" stroke="#000" stroke-width="1"/>

  <!-- Tilde dentro del escudo -->
  <path d="M10 43 l3 3 l6 -6" stroke="#000" stroke-width="2" fill="none" stroke-linecap="round" stroke-linejoin="round"/>
</svg>

