<svg xmlns="http://www.w3.org/2000/svg" viewBox="0 0 64 64" width="32" height="32">
  <!-- Fondo -->
  <rect width="64" height="64" rx="10" fill="#6A1B9A"/>

  <!-- Casa -->
  <g stroke="#000" stroke-width="1.5" fill="white">
    <!-- Techo -->
    <path d="M20 30 L32 18 L44 30 Z" fill="#A5D6A7"/>
    <!-- Cuerpo -->
    <rect x="24" y="30" width="16" height="16" rx="1" />
    <!-- Puerta -->
    <rect x="30" y="38" width="4" height="8" fill="#EF9A9A"/>
    <!-- Ventanas -->
    <rect x="26" y="34" width="3" height="3" fill="#90CAF9"/>
    <rect x="35" y="34" width="3" height="3" fill="#90CAF9"/>
    <!-- Chimenea -->
    <rect x="38" y="20" width="2" height="6" fill="#EF5350"/>
  </g>

  <!-- Escudo azul -->
  <path d="M16 42 C16 48, 22 52, 22 52 C22 52, 28 48, 28 42 C28 36, 22 34, 22 34 C22 34, 16 36, 16 42 Z"
        fill="#2196F3" stroke="#ffffff" stroke-width="1.5"/>

  <!-- Tilde dentro del escudo -->
  <path d="M19 43 l2 2 l4 -4" stroke="#000" stroke-width="1.5" fill="none" stroke-linecap="round" stroke-linejoin="round"/>
</svg>
